{
    "asset" : {
        "generator" : "Khronos glTF Blender I/O v1.2.75",
        "version" : "2.0"
    },
    "scene" : 0,
    "scenes" : [
        {
            "name" : "Scene",
            "nodes" : [
                0,
                1,
                2,
                3
            ]
        }
    ],
    "nodes" : [
        {
            "name" : "Camera",
            "rotation" : [
                0.7071068286895752,
                0,
                0,
                0.7071067094802856
            ],
            "translation" : [
                -0.37065786123275757,
                0.055589910596609116,
                61.379966735839844
            ]
        },
        {
            "mesh" : 0,
            "name" : "earth",
            "rotation" : [
                -0.20042221248149872,
                -0.8449326753616333,
                -0.09932255744934082,
                -0.4858546555042267
            ],
            "scale" : [
                10,
                10,
                10
            ]
        },
        {
            "name" : "Sun",
            "rotation" : [
                0.17198967933654785,
                -0.23011478781700134,
                0.3217383325099945,
                0.9021924138069153
            ],
            "translation" : [
                0,
                22.711620330810547,
                0
            ]
        },
        {
            "name" : "Sun.001",
            "rotation" : [
                -0.20382122695446014,
                0.22367151081562042,
                0.8958813548088074,
                -0.3253069221973419
            ],
            "translation" : [
                0,
                -22.711599349975586,
                0
            ]
        }
    ],
    "materials" : [
        {
            "doubleSided" : true,
            "emissiveFactor" : [
                1,
                0.4716181457042694,
                0.1117558628320694
            ],
            "name" : "earth",
            "pbrMetallicRoughness" : {}
        },
        {
            "doubleSided" : true,
            "name" : "clouds",
            "pbrMetallicRoughness" : {}
        },
        {
            "doubleSided" : true,
            "name" : "atmo",
            "pbrMetallicRoughness" : {}
        }
    ],
    "meshes" : [
        {
            "name" : "Sphere",
            "primitives" : [
                {
                    "attributes" : {
                        "POSITION" : 0,
                        "NORMAL" : 1,
                        "TEXCOORD_0" : 2
                    },
                    "indices" : 3,
                    "material" : 0
                },
                {
                    "attributes" : {
                        "POSITION" : 4,
                        "NORMAL" : 5,
                        "TEXCOORD_0" : 6
                    },
                    "indices" : 7,
                    "material" : 1
                },
                {
                    "attributes" : {
                        "POSITION" : 8,
                        "NORMAL" : 9,
                        "TEXCOORD_0" : 10
                    },
                    "indices" : 11,
                    "material" : 2
                }
            ]
        }
    ],
    "accessors" : [
        {
            "bufferView" : 0,
            "componentType" : 5126,
            "count" : 559,
            "max" : [
                1.000000238418579,
                1,
                1.0000003576278687
            ],
            "min" : [
                -0.9999998211860657,
                -1,
                -1
            ],
            "type" : "VEC3"
        },
        {
            "bufferView" : 1,
            "componentType" : 5126,
            "count" : 559,
            "type" : "VEC3"
        },
        {
            "bufferView" : 2,
            "componentType" : 5126,
            "count" : 559,
            "type" : "VEC2"
        },
        {
            "bufferView" : 3,
            "componentType" : 5123,
            "count" : 2880,
            "type" : "SCALAR"
        },
        {
            "bufferView" : 4,
            "componentType" : 5126,
            "count" : 559,
            "max" : [
                1.0016556978225708,
                1.000472068786621,
                1.0031688213348389
            ],
            "min" : [
                -1.0016547441482544,
                -1.0004719495773315,
                -1.0031688213348389
            ],
            "type" : "VEC3"
        },
        {
            "bufferView" : 5,
            "componentType" : 5126,
            "count" : 559,
            "type" : "VEC3"
        },
        {
            "bufferView" : 6,
            "componentType" : 5126,
            "count" : 559,
            "type" : "VEC2"
        },
        {
            "bufferView" : 7,
            "componentType" : 5123,
            "count" : 2880,
            "type" : "SCALAR"
        },
        {
            "bufferView" : 8,
            "componentType" : 5126,
            "count" : 559,
            "max" : [
                1.006364345550537,
                1.008298397064209,
                1.0080887079238892
            ],
            "min" : [
                -1.0063649415969849,
                -1.0082981586456299,
                -1.0080887079238892
            ],
            "type" : "VEC3"
        },
        {
            "bufferView" : 9,
            "componentType" : 5126,
            "count" : 559,
            "type" : "VEC3"
        },
        {
            "bufferView" : 10,
            "componentType" : 5126,
            "count" : 559,
            "type" : "VEC2"
        },
        {
            "bufferView" : 11,
            "componentType" : 5123,
            "count" : 2880,
            "type" : "SCALAR"
        }
    ],
    "bufferViews" : [
        {
            "buffer" : 0,
            "byteLength" : 6708,
            "byteOffset" : 0
        },
        {
            "buffer" : 0,
            "byteLength" : 6708,
            "byteOffset" : 6708
        },
        {
            "buffer" : 0,
            "byteLength" : 4472,
            "byteOffset" : 13416
        },
        {
            "buffer" : 0,
            "byteLength" : 5760,
            "byteOffset" : 17888
        },
        {
            "buffer" : 0,
            "byteLength" : 6708,
            "byteOffset" : 23648
        },
        {
            "buffer" : 0,
            "byteLength" : 6708,
            "byteOffset" : 30356
        },
        {
            "buffer" : 0,
            "byteLength" : 4472,
            "byteOffset" : 37064
        },
        {
            "buffer" : 0,
            "byteLength" : 5760,
            "byteOffset" : 41536
        },
        {
            "buffer" : 0,
            "byteLength" : 6708,
            "byteOffset" : 47296
        },
        {
            "buffer" : 0,
            "byteLength" : 6708,
            "byteOffset" : 54004
        },
        {
            "buffer" : 0,
            "byteLength" : 4472,
            "byteOffset" : 60712
        },
        {
            "buffer" : 0,
            "byteLength" : 5760,
            "byteOffset" : 65184
        }
    ],
    "buffers" : [
        {
            "byteLength" : 70944,
            "uri" : "data:application/octet-stream;base64,"
        }
    ]
}
